<svg width="155" height="34" viewBox="0 0 155 34" fill="none" xmlns="http://www.w3.org/2000/svg">
<path d="M20.5698 7.74145L20.5471 7.72803L20.4941 7.71189C20.5155 7.72983 20.542 7.74023 20.5698 7.74145Z" fill="#0D0C22"/>
<path d="M20.579 7.73751C20.5759 7.73714 20.5732 7.73646 20.5705 7.73551L20.5698 7.74145C20.5729 7.74105 20.5763 7.73945 20.579 7.73751Z" fill="#0D0C22"/>
<path d="M20.5698 7.74145L20.5746 7.74237V7.73972L20.5698 7.74145Z" fill="#0D0C22"/>
<path d="M20.884 10.1147L20.9224 10.0928L20.9366 10.0847L20.9496 10.0708C20.9254 10.0814 20.903 10.0962 20.884 10.1147Z" fill="#0D0C22"/>
<path d="M20.6354 7.79362L20.5977 7.7578L20.5722 7.74394C20.5861 7.76813 20.6085 7.78598 20.6354 7.79362Z" fill="#0D0C22"/>
<path d="M11.1813 30.8645C11.1512 30.8774 11.1249 30.8978 11.1048 30.9237L11.1285 30.9084C11.1446 30.8938 11.1674 30.8761 11.1813 30.8645Z" fill="#0D0C22"/>
<path d="M16.6719 29.7837C16.6719 29.7498 16.6553 29.7559 16.6593 29.8769C16.6593 29.867 16.6634 29.8572 16.6652 29.8476C16.6674 29.8262 16.6692 29.8052 16.6719 29.7837Z" fill="#0D0C22"/>
<path d="M16.1048 30.8645C16.0748 30.8774 16.0485 30.8978 16.0283 30.9237L16.0521 30.9084C16.0682 30.8938 16.091 30.8761 16.1048 30.8645Z" fill="#0D0C22"/>
<path d="M7.31217 31.1218C7.28938 31.1021 7.26146 31.0888 7.23164 31.0841C7.25579 31.096 7.27994 31.1075 7.29607 31.1164L7.31217 31.1218Z" fill="#0D0C22"/>
<path d="M6.44328 30.2881C6.43975 30.2528 6.42891 30.2188 6.41152 30.1879C6.42385 30.2198 6.43414 30.2528 6.4424 30.2864L6.44328 30.2881Z" fill="#0D0C22"/>
<path d="M12.2874 15.3735C11.0928 15.8853 9.73706 16.4655 7.98002 16.4655C7.24499 16.464 6.51355 16.3631 5.80552 16.1655L7.02075 28.6503C7.06375 29.172 7.30133 29.6587 7.68626 30.0132C8.07118 30.368 8.57532 30.5648 9.09859 30.5644C9.09859 30.5644 10.8216 30.6542 11.3966 30.6542C12.0154 30.6542 13.8709 30.5644 13.8709 30.5644C14.394 30.5644 14.8981 30.3676 15.2829 30.0132C15.6677 29.6583 15.9053 29.172 15.9483 28.6503L17.2498 14.8542C16.6682 14.6554 16.0812 14.5233 15.4194 14.5233C14.2749 14.5229 13.3527 14.9173 12.2874 15.3735Z" fill="#FFDD00"/>
<path d="M2.04618 10.0472L2.06677 10.0665L2.08018 10.0745C2.06986 10.0643 2.05845 10.0551 2.04618 10.0472Z" fill="#0D0C22"/>
<path d="M22.8716 8.89501L22.6889 7.97138C22.5245 7.14264 22.1519 6.35958 21.3018 6.06005C21.0294 5.96424 20.7199 5.92305 20.5111 5.72474C20.3022 5.52639 20.2404 5.21837 20.1921 4.93271C20.1028 4.40842 20.0186 3.8837 19.9269 3.36034C19.8477 2.91038 19.7849 2.40489 19.5787 1.99212C19.3104 1.43783 18.7534 1.1137 18.1994 0.89924C17.9155 0.793201 17.6257 0.70351 17.3317 0.630608C15.9478 0.265248 14.4928 0.130932 13.0691 0.054393C11.3602 -0.0399547 9.64682 -0.0115422 7.94202 0.139462C6.67312 0.254949 5.33667 0.39467 4.13085 0.833849C3.69012 0.994607 3.23601 1.18755 2.90088 1.52827C2.4897 1.94689 2.35547 2.59431 2.65568 3.11631C2.86912 3.48704 3.23064 3.74894 3.61407 3.92221C4.11353 4.14547 4.63512 4.31533 5.17021 4.42902C6.66015 4.75856 8.20334 4.88795 9.72548 4.943C11.4125 5.01115 13.1024 4.95592 14.7814 4.77779C15.1966 4.73215 15.6111 4.67736 16.0248 4.6135C16.512 4.53873 16.8248 3.90117 16.6812 3.45703C16.5094 2.92605 16.0476 2.72009 15.5255 2.80023C15.4485 2.81233 15.372 2.82351 15.295 2.83473L15.2396 2.84278C15.0627 2.86515 14.8858 2.88605 14.7089 2.90545C14.3435 2.94484 13.9772 2.9771 13.61 3.00215C12.7877 3.05945 11.9631 3.08589 11.1389 3.08722C10.3291 3.08722 9.51877 3.06438 8.71071 3.01112C8.34202 2.98692 7.97425 2.9562 7.60736 2.91888C7.44045 2.90141 7.27403 2.88306 7.10756 2.86246L6.94919 2.84231L6.91474 2.83741L6.75053 2.81366C6.41495 2.76308 6.07938 2.70486 5.74741 2.63458C5.71392 2.62714 5.68393 2.60851 5.66246 2.58173C5.641 2.55495 5.62928 2.52161 5.62928 2.48728C5.62928 2.45295 5.641 2.41965 5.66246 2.39286C5.68393 2.36608 5.71392 2.34742 5.74741 2.33998H5.75366C6.04137 2.27863 6.3313 2.22626 6.62211 2.18058C6.71908 2.16539 6.81632 2.15043 6.91383 2.13582H6.91651C7.09863 2.12372 7.28163 2.09106 7.46284 2.06955C9.03942 1.90546 10.6254 1.84951 12.2096 1.90213C12.9787 1.92449 13.7474 1.96973 14.5129 2.04762C14.6776 2.06465 14.8414 2.08256 15.0051 2.10268C15.0677 2.1103 15.1309 2.11927 15.1939 2.12688L15.321 2.14524C15.6915 2.20043 16.06 2.26745 16.4266 2.34627C16.9698 2.46444 17.6672 2.50295 17.909 3.09843C17.9858 3.28737 18.0208 3.49734 18.0632 3.69568L18.1176 3.94862C18.1189 3.95317 18.1199 3.95783 18.1206 3.96252C18.2487 4.55946 18.3767 5.15641 18.5048 5.75339C18.5143 5.79747 18.5146 5.84305 18.5054 5.88723C18.4966 5.93141 18.4786 5.97328 18.4528 6.01019C18.427 6.04714 18.3937 6.07834 18.3553 6.10186C18.3169 6.12538 18.2738 6.1407 18.2293 6.14692H18.2256L18.1474 6.15766L18.07 6.16796C17.8248 6.19991 17.5792 6.22975 17.3335 6.25752C16.8494 6.31271 16.3646 6.3605 15.8789 6.40077C14.914 6.48108 13.9471 6.53376 12.9783 6.55881C12.4846 6.57196 11.9911 6.57808 11.4977 6.57716C9.53398 6.57564 7.57193 6.46144 5.62123 6.23512C5.41003 6.21004 5.19887 6.18319 4.98768 6.15586C5.15142 6.17693 4.86867 6.13975 4.8114 6.1317C4.67717 6.1129 4.54294 6.09336 4.40872 6.07304C3.95814 6.00544 3.51027 5.92217 3.06061 5.8492C2.51697 5.75964 1.99707 5.80444 1.50536 6.07304C1.10172 6.29405 0.775048 6.633 0.568882 7.04459C0.356805 7.48336 0.293731 7.96108 0.198867 8.43251C0.104003 8.90398 -0.0436421 9.41123 0.0122981 9.89521C0.132636 10.9397 0.862406 11.7886 1.91206 11.9784C2.89952 12.1575 3.89238 12.3026 4.88789 12.4261C8.79854 12.9054 12.7493 12.9628 16.6722 12.5972C16.9917 12.5673 17.3107 12.5348 17.6291 12.4996C17.7287 12.4886 17.8295 12.5001 17.924 12.5332C18.0184 12.5662 18.1043 12.62 18.1753 12.6905C18.2463 12.7611 18.301 12.8467 18.3346 12.941C18.3682 13.0353 18.3804 13.136 18.3703 13.2356L18.2707 14.2018C18.0707 16.1541 17.8706 18.1063 17.6706 20.0584C17.4617 22.1083 17.2515 24.1582 17.04 26.2076C16.9803 26.7851 16.9207 27.3622 16.861 27.9393C16.8038 28.5072 16.7957 29.0935 16.6879 29.6549C16.5179 30.5376 15.9205 31.08 15.049 31.2782C14.2505 31.46 13.4347 31.5555 12.6159 31.563C11.708 31.5677 10.8006 31.5276 9.89282 31.5324C8.9237 31.5378 7.73666 31.4484 6.98855 30.7265C6.3313 30.0927 6.24048 29.0999 6.15098 28.2418C6.03166 27.1056 5.91339 25.9694 5.79618 24.8332L4.71294 14.4292C4.70581 14.3616 4.69864 14.2949 4.69191 14.2269C4.64093 13.7393 4.29595 13.2621 3.75234 13.2867C3.28699 13.3073 2.75816 13.703 2.81274 14.2269L3.7805 23.5251C3.96636 25.3056 4.15174 27.0862 4.33668 28.8671C4.37247 29.2083 4.40603 29.5506 4.4436 29.8915C4.64807 31.756 6.07089 32.7607 7.83285 33.0434C8.86195 33.2093 9.91609 33.2433 10.9604 33.2603C12.2991 33.2817 13.6512 33.3333 14.968 33.0907C16.9192 32.7325 18.3832 31.4287 18.592 29.4062C18.6518 28.8226 18.7116 28.2384 18.771 27.6545C18.9694 25.7226 19.1674 23.7907 19.3654 21.8587L20.309 12.6527C20.3236 12.5092 20.3844 12.3743 20.4815 12.268C20.579 12.1617 20.7081 12.0895 20.8494 12.0622C21.4074 11.9534 21.9406 11.7676 22.3377 11.3427C22.9694 10.6662 23.0951 9.78417 22.8716 8.89501ZM1.88342 9.51914C1.89192 9.5151 1.87626 9.58807 1.86957 9.62212C1.86821 9.57063 1.87089 9.52495 1.88342 9.51914ZM1.93756 9.9382C1.94205 9.93507 1.95546 9.95298 1.96932 9.97446C1.9483 9.95475 1.93532 9.94 1.93756 9.9382ZM1.99082 10.0085C2.02034 10.0618 2.01005 10.0412 1.99082 10.0085ZM2.10043 10.0954C2.10043 10.0985 2.10535 10.1016 2.10715 10.1047C2.10416 10.1013 2.10087 10.0981 2.0973 10.0954H2.10043ZM20.8235 9.96549C20.6231 10.1562 20.3209 10.2449 20.0226 10.2892C16.6758 10.7862 13.2803 11.0378 9.89683 10.9267C7.47537 10.8439 5.07939 10.5748 2.68208 10.2359C2.44717 10.2028 2.19261 10.1598 2.03107 9.98656C1.72681 9.65971 1.87626 9.00155 1.95546 8.60669C2.02795 8.24494 2.16666 7.76273 2.59662 7.71124C3.26777 7.63246 4.04719 7.91584 4.71117 8.01658C5.51057 8.13866 6.31296 8.23641 7.11833 8.30985C10.5554 8.62325 14.0503 8.57444 17.4722 8.11599C18.0958 8.03211 18.7174 7.93467 19.3366 7.82363C19.8885 7.72466 20.4999 7.53889 20.8334 8.11062C21.062 8.50011 21.0922 9.02127 21.0569 9.46136C21.046 9.65312 20.9631 9.83349 20.8235 9.96549Z" fill="white"/>
<path d="M34.6923 8.96305C34.7697 8.65327 34.9079 8.44307 35.1069 8.33243C35.317 8.21073 35.527 8.16095 35.7371 8.18308C35.9582 8.2052 36.1517 8.27712 36.3176 8.39881C36.4834 8.52051 36.5663 8.66434 36.5663 8.83029C36.5663 8.89667 36.5608 8.96305 36.5497 9.02943C36.5387 9.08475 36.5331 9.14006 36.5331 9.19538C37.2076 8.95199 37.8654 8.79157 38.5067 8.71412C39.159 8.62561 39.7505 8.65327 40.2812 8.7971C40.823 8.94092 41.2929 9.20091 41.6909 9.57707C42.1 9.95323 42.3985 10.4732 42.5865 11.137C42.6639 11.4025 42.6804 11.7234 42.6362 12.0995C42.592 12.4646 42.5091 12.8297 42.3874 13.1948C42.2658 13.5599 42.1166 13.8974 41.9397 14.2071C41.7738 14.5169 41.6025 14.7437 41.4256 14.8875C41.8346 15.0203 42.1884 15.236 42.487 15.5347C42.7855 15.8224 43.0232 16.1598 43.2001 16.547C43.377 16.9343 43.4875 17.3547 43.5318 17.8083C43.576 18.2619 43.5484 18.7155 43.4489 19.1691C43.3493 19.6116 43.1448 20.0265 42.8352 20.4137C42.5257 20.7899 42.1442 21.1273 41.6909 21.426C41.2376 21.7247 40.7345 21.9737 40.1817 22.1728C39.6289 22.372 39.065 22.5102 38.4901 22.5877C37.9262 22.6541 37.3679 22.6541 36.8151 22.5877C36.2623 22.5102 35.7647 22.3498 35.3225 22.1064C35.1788 22.3388 35.0074 22.4992 34.8084 22.5877C34.6204 22.6873 34.438 22.7205 34.2611 22.6873C34.0842 22.6541 33.9294 22.5545 33.7967 22.3886C33.664 22.2226 33.5811 21.9903 33.548 21.6916C33.6475 20.6958 33.747 19.6614 33.8465 18.5883C33.946 17.504 34.0455 16.4143 34.145 15.319C34.2445 14.2237 34.3385 13.1395 34.4269 12.0663C34.5154 10.9932 34.6038 9.95876 34.6923 8.96305ZM35.4717 20.4801C35.7813 20.7014 36.1572 20.8507 36.5995 20.9282C37.0417 20.9946 37.495 21.0001 37.9594 20.9448C38.4348 20.8784 38.9047 20.7567 39.3691 20.5797C39.8334 20.4027 40.237 20.1759 40.5797 19.8993C40.9335 19.6116 41.21 19.2797 41.409 18.9036C41.608 18.5163 41.6798 18.0904 41.6246 17.6257C41.6025 17.4598 41.5416 17.2994 41.4421 17.1445C41.3426 16.9896 41.221 16.8458 41.0773 16.713C40.8119 16.4807 40.4471 16.3368 39.9827 16.2815C39.5294 16.2151 39.0429 16.2096 38.5233 16.2649C38.0147 16.3092 37.5172 16.3922 37.0307 16.5139C36.5442 16.6245 36.1407 16.7351 35.82 16.8458L35.4717 20.4801ZM36.019 14.6718C36.0964 14.6718 36.2567 14.6663 36.5 14.6552C36.7543 14.6441 37.0473 14.6165 37.379 14.5722C37.7217 14.528 38.0755 14.4616 38.4404 14.3731C38.8052 14.2735 39.148 14.1463 39.4686 13.9914C39.8003 13.8254 40.0767 13.6263 40.2978 13.394C40.53 13.1506 40.6682 12.8574 40.7124 12.5144C40.7677 12.0829 40.7345 11.7289 40.6129 11.4523C40.4913 11.1647 40.3033 10.9489 40.049 10.8051C39.8058 10.6502 39.5183 10.5562 39.1867 10.523C38.866 10.4898 38.5343 10.4953 38.1916 10.5396C37.8488 10.5838 37.5116 10.6613 37.1799 10.7719C36.8593 10.8826 36.5829 11.0098 36.3507 11.1536L36.019 14.6718Z" fill="white"/>
<path d="M44.7756 13.4272C44.9304 13.1506 45.1128 12.9625 45.3229 12.8629C45.544 12.7523 45.7541 12.7246 45.9531 12.7799C46.1632 12.8242 46.3401 12.9459 46.4838 13.145C46.6275 13.3331 46.6994 13.5876 46.6994 13.9084C46.6662 14.0412 46.6054 14.3067 46.517 14.705C46.4285 15.1033 46.329 15.5624 46.2185 16.0824C46.1189 16.6024 46.0194 17.1555 45.9199 17.7419C45.8204 18.3172 45.7541 18.8482 45.7209 19.335C45.6877 19.8218 45.6933 20.2312 45.7375 20.5631C45.7928 20.895 45.9089 21.0775 46.0858 21.1107C46.4064 21.166 46.7049 21.0443 46.9813 20.7456C47.2577 20.4469 47.512 20.0542 47.7442 19.5674C47.9764 19.0695 48.1865 18.5163 48.3744 17.9079C48.5624 17.2994 48.7227 16.7185 48.8554 16.1654C48.9991 15.6011 49.1152 15.1033 49.2036 14.6718C49.2921 14.2403 49.3584 13.9527 49.4027 13.8088C49.4801 13.5323 49.5796 13.3055 49.7012 13.1284C49.8339 12.9514 50.0329 12.8076 50.2982 12.697C50.6852 12.6527 50.9837 12.7357 51.1938 12.9459C51.4149 13.145 51.531 13.4382 51.5421 13.8254C51.4536 14.2569 51.3541 14.716 51.2435 15.2028C51.133 15.6896 51.0279 16.1764 50.9284 16.6632C50.8289 17.1389 50.746 17.6036 50.6797 18.0572C50.6133 18.4997 50.5691 18.898 50.547 19.2521C50.5359 19.6061 50.5525 19.9048 50.5967 20.1482C50.652 20.3916 50.7571 20.5465 50.9118 20.6129C51.2656 20.6682 51.5807 20.4856 51.8572 20.0652C52.1446 19.6448 52.4487 18.9589 52.7693 18.0074C52.8688 17.764 53.0181 17.6147 53.2171 17.5594C53.4161 17.504 53.5985 17.5206 53.7644 17.6091C53.9413 17.6866 54.0739 17.8304 54.1624 18.0406C54.2619 18.2508 54.2619 18.5053 54.1624 18.804C54.0961 18.9921 54.0131 19.2133 53.9136 19.4678C53.8141 19.7112 53.6925 19.9657 53.5488 20.2312C53.4161 20.4967 53.2668 20.7622 53.101 21.0277C52.9351 21.2933 52.7582 21.5311 52.5703 21.7413C52.2939 22.0732 51.9843 22.3111 51.6416 22.4549C51.2988 22.5877 50.9616 22.6319 50.6299 22.5877C50.2982 22.5434 49.9831 22.4051 49.6846 22.1728C49.3861 21.9405 49.1428 21.6141 48.9549 21.1937C48.7559 21.4813 48.5513 21.7469 48.3413 21.9903C48.1422 22.2337 47.9156 22.4439 47.6613 22.6209C47.4181 22.7979 47.1416 22.9251 46.8321 23.0026C46.5336 23.0911 46.1798 23.1243 45.7707 23.1021C45.3726 23.08 45.041 22.9694 44.7756 22.7702C44.5213 22.5711 44.3223 22.3166 44.1786 22.0069C44.0348 21.6971 43.9353 21.3597 43.88 20.9946C43.8248 20.6184 43.7971 20.2422 43.7971 19.8661C43.7971 19.4899 43.8082 19.1359 43.8303 18.804C43.8635 18.461 43.8911 18.1734 43.9132 17.941C43.9464 17.6423 43.9961 17.2938 44.0625 16.8955C44.1399 16.4973 44.2173 16.0934 44.2947 15.6841C44.3831 15.2637 44.4716 14.8599 44.56 14.4726C44.6485 14.0744 44.7203 13.7259 44.7756 13.4272Z" fill="white"/>
<path d="M53.5985 13.4272C53.7091 13.1616 53.8915 12.9901 54.1458 12.9127C54.4001 12.8353 54.6433 12.8353 54.8755 12.9127C55.1077 12.9791 55.2901 13.1229 55.4228 13.3442C55.5555 13.5544 55.5555 13.8199 55.4228 14.1407C55.3344 14.4063 55.2404 14.7326 55.1409 15.1199C55.0414 15.5071 54.9474 15.9164 54.8589 16.3479C54.7815 16.7794 54.7152 17.2164 54.6599 17.6589C54.6157 18.0904 54.5991 18.4887 54.6102 18.8538C54.6323 19.2189 54.6876 19.5231 54.776 19.7665C54.8645 20.0099 55.0082 20.1593 55.2072 20.2146C55.6384 20.2367 56.0364 20.1537 56.4013 19.9657C56.7772 19.7665 57.1199 19.4955 57.4295 19.1525C57.7502 18.8095 58.0431 18.4168 58.3085 17.9742C58.5738 17.5317 58.8116 17.0781 59.0216 16.6134C59.2427 16.1377 59.4362 15.673 59.6021 15.2194C59.779 14.7658 59.9338 14.3565 60.0664 13.9914C60.2212 13.7148 60.4037 13.5267 60.6137 13.4272C60.8349 13.3165 61.0449 13.2889 61.2439 13.3442C61.454 13.3884 61.6309 13.5101 61.7746 13.7093C61.9184 13.8974 61.9902 14.1463 61.9902 14.4561C61.7912 15.0424 61.6364 15.6398 61.5259 16.2483C61.4264 16.8568 61.36 17.4598 61.3269 18.0572C61.3047 18.4776 61.2937 18.8925 61.2937 19.3018C61.3047 19.7112 61.3324 20.0929 61.3766 20.4469C61.4982 20.3805 61.6641 20.2754 61.8741 20.1316C62.0953 19.9878 62.3219 19.8163 62.5541 19.6172C62.7973 19.418 63.0295 19.1967 63.2506 18.9534C63.4718 18.71 63.6542 18.4555 63.7979 18.19C64.0191 17.9244 64.2347 17.8027 64.4447 17.8249C64.6659 17.847 64.8483 17.941 64.992 18.107C65.1468 18.2729 65.2408 18.4721 65.2739 18.7044C65.3182 18.9368 65.2795 19.1359 65.1579 19.3018C64.7598 19.9767 64.2568 20.6184 63.6487 21.2269C63.0406 21.8354 62.2611 22.3388 61.3103 22.737C61.3434 23.2128 61.3434 23.7549 61.3103 24.3634C61.2771 24.9719 61.1942 25.5914 61.0615 26.222C60.9399 26.8527 60.7685 27.4556 60.5474 28.0309C60.3373 28.6173 60.0609 29.1151 59.7182 29.5245C59.3865 29.9338 58.994 30.227 58.5407 30.404C58.0874 30.581 57.5622 30.5755 56.9652 30.3874C56.3902 30.2104 55.9756 29.9172 55.7213 29.5079C55.467 29.0985 55.3344 28.6173 55.3233 28.0641C55.3233 27.522 55.4283 26.9356 55.6384 26.305C55.8485 25.6744 56.1359 25.0493 56.5008 24.4298C56.8767 23.8213 57.3079 23.246 57.7944 22.7039C58.2919 22.1618 58.8171 21.6971 59.3699 21.3099C59.381 21.0443 59.3865 20.8009 59.3865 20.5797C59.3865 20.3473 59.392 20.1039 59.4031 19.8495C59.1267 20.2035 58.8005 20.5465 58.4246 20.8784C58.0597 21.1992 57.6617 21.4758 57.2305 21.7081C56.7993 21.9405 56.346 22.1009 55.8706 22.1894C55.3952 22.2779 54.9087 22.2558 54.4112 22.123C53.9468 21.9903 53.5764 21.7469 53.3 21.3928C53.0346 21.0388 52.8412 20.6184 52.7195 20.1316C52.5979 19.6338 52.5426 19.0916 52.5537 18.5053C52.5648 17.9079 52.6145 17.3104 52.703 16.713C52.8025 16.1045 52.9296 15.5181 53.0844 14.9539C53.2392 14.3897 53.4106 13.8808 53.5985 13.4272ZM59.4031 23.8655C59.1488 24.0757 58.9055 24.3357 58.6734 24.6455C58.4412 24.9663 58.2311 25.2982 58.0431 25.6412C57.8662 25.9842 57.7115 26.3271 57.5788 26.6701C57.4572 27.0241 57.3742 27.3394 57.33 27.616C57.2858 27.8926 57.2858 28.125 57.33 28.313C57.3742 28.5011 57.4793 28.6062 57.6451 28.6283C57.8552 28.6615 58.0487 28.573 58.2256 28.3628C58.4135 28.1637 58.5794 27.8981 58.7231 27.5662C58.8779 27.2343 59.0106 26.8637 59.1211 26.4544C59.2317 26.0561 59.3146 25.6744 59.3699 25.3093C59.4362 24.9442 59.4694 24.6289 59.4694 24.3634C59.4805 24.0979 59.4583 23.9319 59.4031 23.8655Z" fill="white"/>
<path d="M68.2757 22.1562C68.4305 21.1494 68.5411 20.2644 68.6074 19.501C68.6848 18.7376 68.729 18.0738 68.7401 17.5096C68.7512 16.9343 68.7401 16.453 68.7069 16.0658C68.6848 15.6675 68.6516 15.3301 68.6074 15.0535C68.5632 14.7769 68.5134 14.5556 68.4582 14.3897C68.4139 14.2127 68.3863 14.0633 68.3752 13.9416C68.3531 13.7757 68.3642 13.6318 68.4084 13.5101C68.4637 13.3774 68.5356 13.2667 68.624 13.1782C68.7235 13.0897 68.8341 13.0233 68.9557 12.9791C69.0773 12.9238 69.1989 12.8961 69.3205 12.8961C69.5638 12.8961 69.7517 12.9348 69.8844 13.0123C70.0171 13.0897 70.1166 13.2059 70.1829 13.3608C70.2603 13.5046 70.3101 13.6871 70.3322 13.9084C70.3654 14.1186 70.393 14.3675 70.4151 14.6552C70.5589 14.4118 70.7247 14.1684 70.9127 13.925C71.1006 13.6705 71.3107 13.4437 71.5429 13.2446C71.775 13.0455 72.0293 12.885 72.3057 12.7633C72.5932 12.6306 72.9028 12.5642 73.2345 12.5642C73.5772 12.5642 73.9034 12.6306 74.213 12.7633C74.5225 12.885 74.7989 13.0621 75.0422 13.2944C75.2965 13.5157 75.5065 13.7812 75.6724 14.091C75.8493 14.3897 75.982 14.716 76.0704 15.0701C76.3136 14.6054 76.579 14.1629 76.8665 13.7425C77.165 13.322 77.563 12.9957 78.0605 12.7633C78.5581 12.531 79.0224 12.4646 79.4536 12.5642C79.8848 12.6638 80.2607 12.8684 80.5814 13.1782C80.9131 13.4769 81.1729 13.8586 81.3608 14.3233C81.5488 14.7769 81.6428 15.2526 81.6428 15.7505C81.6428 16.3258 81.6041 16.9287 81.5267 17.5594C81.4603 18.19 81.3995 18.7763 81.3443 19.3184C81.289 19.8606 81.2669 20.3142 81.2779 20.6792C81.3 21.0443 81.3995 21.249 81.5764 21.2933C81.875 21.3707 82.1624 21.2822 82.4388 21.0277C82.7152 20.7733 82.964 20.458 83.1851 20.0818C83.4173 19.7057 83.6163 19.324 83.7822 18.9368C83.9591 18.5385 84.0973 18.2287 84.1968 18.0074C84.2742 17.8193 84.3958 17.7032 84.5616 17.6589C84.7385 17.6147 84.9044 17.6257 85.0592 17.6921C85.225 17.7585 85.3577 17.8802 85.4572 18.0572C85.5678 18.2232 85.6064 18.4278 85.5733 18.6712C85.4406 19.2133 85.2582 19.7554 85.026 20.2976C84.7938 20.8397 84.5008 21.332 84.147 21.7745C83.8043 22.206 83.3897 22.5545 82.9032 22.82C82.4167 23.0966 81.8584 23.2349 81.2282 23.2349C80.808 23.2349 80.4598 23.1187 80.1833 22.8864C79.918 22.6651 79.7079 22.3941 79.5531 22.0732C79.3984 21.7413 79.2933 21.3928 79.238 21.0277C79.1828 20.6627 79.1551 20.3418 79.1551 20.0652C79.1551 19.6669 79.1772 19.2853 79.2215 18.9202C79.2767 18.5551 79.3375 18.201 79.4039 17.8581C79.4702 17.504 79.5255 17.1666 79.5697 16.8458C79.625 16.5139 79.6526 16.193 79.6526 15.8832C79.6526 15.4628 79.6029 15.1309 79.5034 14.8875C79.4149 14.6441 79.2823 14.5224 79.1054 14.5224C78.7626 14.5224 78.4365 14.7271 78.1269 15.1365C77.8284 15.5347 77.552 16.0547 77.2977 16.6964C77.0544 17.327 76.8333 18.0461 76.6343 18.8538C76.4463 19.6503 76.2971 20.4469 76.1865 21.2435C76.1533 21.5201 76.0317 21.7192 75.8216 21.8409C75.6116 21.9515 75.3849 21.9958 75.1417 21.9737C74.9095 21.9405 74.6939 21.852 74.4949 21.7081C74.3069 21.5533 74.213 21.3486 74.213 21.0941C74.2351 20.9503 74.2682 20.6903 74.3125 20.3142C74.3677 19.9269 74.412 19.4899 74.4451 19.0031C74.4894 18.5163 74.5115 18.013 74.5115 17.493C74.5225 16.9619 74.4894 16.4751 74.412 16.0326C74.3456 15.5901 74.224 15.2305 74.0471 14.9539C73.8813 14.6663 73.6436 14.5224 73.334 14.5224C73.0797 14.5224 72.8364 14.6441 72.6043 14.8875C72.3721 15.1199 72.1454 15.4352 71.9243 15.8335C71.7142 16.2317 71.5207 16.6909 71.3438 17.2109C71.1669 17.7308 71.0066 18.2785 70.8629 18.8538C70.7302 19.4291 70.6141 20.0099 70.5146 20.5963C70.4262 21.1826 70.3654 21.7358 70.3322 22.2558C70.299 22.5324 70.1664 22.726 69.9342 22.8366C69.713 22.9473 69.4753 22.9915 69.221 22.9694C68.9668 22.9473 68.7401 22.8643 68.5411 22.7205C68.3421 22.5766 68.2536 22.3886 68.2757 22.1562Z" fill="white"/>
<path d="M89.6365 14.7714C89.6144 15.3245 89.5148 15.8832 89.3379 16.4475C89.161 17.0006 88.9012 17.504 88.5585 17.9576C88.2157 18.4002 87.7956 18.7597 87.2981 19.0363C86.8116 19.3018 86.2532 19.4125 85.623 19.3682C85.6341 19.7112 85.6728 20.0431 85.7391 20.3639C85.8055 20.6848 85.9105 20.9614 86.0542 21.1937C86.209 21.415 86.4136 21.5754 86.6679 21.675C86.9221 21.7635 87.2428 21.7469 87.6298 21.6252C88.0167 21.5145 88.3871 21.332 88.7409 21.0775C89.0947 20.8231 89.4098 20.5299 89.6862 20.198C89.9737 19.8661 90.2114 19.5176 90.3994 19.1525C90.5984 18.7763 90.7421 18.4112 90.8305 18.0572C90.8748 17.8691 90.9798 17.753 91.1457 17.7087C91.3115 17.6645 91.4829 17.67 91.6598 17.7253C91.8477 17.7806 92.0025 17.8802 92.1241 18.024C92.2568 18.1568 92.301 18.3117 92.2568 18.4887C92.0136 19.1304 91.7703 19.7001 91.5271 20.198C91.2949 20.6958 91.0351 21.1384 90.7476 21.5256C90.4602 21.9018 90.134 22.2226 89.7691 22.4881C89.4153 22.7536 88.9952 22.9749 88.5087 23.1519C87.8564 23.3843 87.2538 23.4838 86.701 23.4506C86.1482 23.4285 85.6673 23.2847 85.2582 23.0192C84.8491 22.7536 84.5229 22.3775 84.2797 21.8907C84.0475 21.4039 83.9148 20.812 83.8817 20.115C83.8596 19.7831 83.8485 19.3848 83.8485 18.9202C83.8596 18.4444 83.8927 17.9521 83.948 17.4432C84.0033 16.9232 84.0917 16.3977 84.2134 15.8666C84.335 15.3356 84.5008 14.8433 84.7109 14.3897C84.921 13.925 85.1808 13.5212 85.4904 13.1782C85.811 12.8242 86.198 12.5697 86.6513 12.4148C87.0272 12.2821 87.3976 12.2323 87.7624 12.2655C88.1273 12.2987 88.4479 12.4148 88.7243 12.614C89.0118 12.8131 89.2384 13.0952 89.4043 13.4603C89.5701 13.8144 89.6475 14.2514 89.6365 14.7714ZM87.5468 14.3399C87.392 14.2403 87.2373 14.2348 87.0825 14.3233C86.9387 14.4007 86.8005 14.539 86.6679 14.7382C86.5352 14.9263 86.4191 15.1531 86.3196 15.4186C86.2201 15.6841 86.1372 15.9607 86.0708 16.2483C86.0045 16.5249 85.9547 16.7904 85.9216 17.0449C85.8884 17.2994 85.8829 17.504 85.905 17.6589C86.4136 17.5594 86.8171 17.3491 87.1156 17.0283C87.4142 16.7075 87.6187 16.3645 87.7293 15.9994C87.8509 15.6343 87.8896 15.2913 87.8454 14.9705C87.8122 14.6497 87.7127 14.4395 87.5468 14.3399Z" fill="white"/>
<path d="M97.9287 22.4383C97.2542 22.4383 96.718 22.2503 96.32 21.8741C95.933 21.4979 95.6621 21.0167 95.5074 20.4303C95.3526 19.8329 95.3028 19.1746 95.3581 18.4555C95.4244 17.7364 95.5792 17.0338 95.8225 16.3479C96.0657 15.6509 96.3808 15.0092 96.7678 14.4229C97.1658 13.8365 97.6191 13.3884 98.1277 13.0787C98.6363 12.7689 99.1891 12.6361 99.7861 12.6804C100.394 12.7246 101.024 13.0289 101.677 13.5931C101.743 13.394 101.887 13.2778 102.108 13.2446C102.329 13.2004 102.545 13.2225 102.755 13.311C102.976 13.3884 103.158 13.5267 103.302 13.7259C103.446 13.9139 103.473 14.1463 103.385 14.4229C103.308 14.7326 103.208 15.1143 103.086 15.5679C102.965 16.0105 102.843 16.4751 102.722 16.9619C102.611 17.4487 102.512 17.941 102.423 18.4389C102.346 18.9257 102.307 19.3682 102.307 19.7665C102.318 20.1537 102.379 20.4801 102.489 20.7456C102.6 21.0001 102.793 21.1384 103.07 21.1605C103.402 21.1826 103.711 21.072 103.999 20.8286C104.297 20.5741 104.557 20.2588 104.778 19.8827C105.01 19.5065 105.204 19.1082 105.358 18.6878C105.513 18.2674 105.613 17.9023 105.657 17.5925C105.734 17.3049 105.862 17.1389 106.038 17.0947C106.226 17.0394 106.403 17.056 106.569 17.1445C106.746 17.233 106.884 17.3713 106.984 17.5594C107.094 17.7364 107.111 17.9079 107.034 18.0738C106.956 18.5163 106.801 19.0253 106.569 19.6006C106.337 20.1648 106.038 20.7069 105.674 21.2269C105.32 21.7358 104.916 22.1673 104.463 22.5213C104.01 22.8753 103.523 23.0524 103.004 23.0524C102.771 23.0524 102.528 23.0081 102.274 22.9196C102.031 22.8422 101.793 22.7149 101.561 22.5379C101.34 22.3609 101.141 22.1341 100.964 21.8575C100.787 21.5809 100.66 21.2435 100.582 20.8452C100.483 20.9669 100.344 21.1218 100.168 21.3099C99.9907 21.4869 99.7861 21.6584 99.554 21.8243C99.3218 21.9903 99.0675 22.1341 98.7911 22.2558C98.5147 22.3775 98.2272 22.4383 97.9287 22.4383ZM97.9121 20.3639C98.2659 20.3971 98.5755 20.3142 98.8408 20.115C99.1172 19.9159 99.3605 19.6503 99.5705 19.3184C99.7806 18.9755 99.9575 18.5938 100.101 18.1734C100.245 17.753 100.361 17.3491 100.45 16.9619C100.549 16.5636 100.626 16.2041 100.682 15.8832C100.737 15.5513 100.776 15.3135 100.798 15.1696C100.444 14.8709 100.112 14.716 99.8027 14.705C99.4931 14.6939 99.2057 14.7824 98.9403 14.9705C98.686 15.1475 98.4594 15.402 98.2604 15.7339C98.0614 16.0658 97.89 16.4309 97.7462 16.8292C97.6136 17.2164 97.5141 17.6147 97.4477 18.024C97.3814 18.4334 97.3482 18.8095 97.3482 19.1525C97.3593 19.4955 97.409 19.7776 97.4975 19.9988C97.597 20.2201 97.7352 20.3418 97.9121 20.3639Z" fill="white"/>
<path d="M115.624 16.2317C115.602 16.2317 115.586 16.2262 115.575 16.2151C115.453 16.4807 115.293 16.6743 115.094 16.796C114.906 16.9177 114.712 16.9675 114.513 16.9453C114.314 16.9121 114.132 16.8126 113.966 16.6466C113.811 16.4807 113.706 16.2483 113.651 15.9496C113.651 15.8058 113.667 15.6288 113.7 15.4186C113.734 15.1973 113.756 14.9871 113.767 14.788C113.789 14.5778 113.783 14.4007 113.75 14.2569C113.717 14.102 113.629 14.0135 113.485 13.9914C113.231 14.1352 113.009 14.3786 112.821 14.7216C112.634 15.0535 112.479 15.4352 112.357 15.8666C112.236 16.2871 112.147 16.7351 112.092 17.2109C112.048 17.6866 112.031 18.1457 112.042 18.5883C112.064 19.0197 112.119 19.407 112.208 19.7499C112.307 20.0929 112.446 20.3418 112.622 20.4967C112.844 20.7069 113.087 20.8341 113.352 20.8784C113.618 20.9226 113.894 20.9171 114.181 20.8618C114.425 20.8175 114.701 20.7346 115.011 20.6129C115.32 20.4912 115.63 20.3142 115.939 20.0818C116.26 19.8495 116.564 19.5508 116.852 19.1857C117.15 18.8206 117.41 18.3615 117.631 17.8083C117.708 17.6423 117.841 17.5428 118.029 17.5096C118.228 17.4764 118.421 17.4985 118.609 17.5759C118.797 17.6423 118.947 17.7585 119.057 17.9244C119.168 18.0904 119.179 18.2951 119.09 18.5385C118.869 19.0585 118.593 19.5231 118.261 19.9325C117.941 20.3418 117.592 20.7014 117.216 21.0112C116.84 21.3209 116.448 21.5865 116.039 21.8077C115.63 22.029 115.232 22.2115 114.845 22.3554C114.546 22.466 114.231 22.549 113.899 22.6043C113.568 22.6707 113.231 22.6873 112.888 22.6541C112.556 22.6209 112.236 22.5379 111.926 22.4051C111.616 22.2613 111.34 22.0401 111.097 21.7413C110.809 21.3984 110.583 20.9724 110.417 20.4635C110.262 19.9546 110.162 19.4125 110.118 18.8372C110.074 18.2619 110.085 17.67 110.151 17.0615C110.229 16.453 110.35 15.8777 110.516 15.3356C110.693 14.7824 110.914 14.2846 111.18 13.842C111.456 13.3884 111.771 13.0344 112.125 12.7799C112.7 12.3927 113.258 12.2157 113.8 12.2489C114.353 12.271 114.79 12.5144 115.11 12.9791C115.364 13.0123 115.569 13.1395 115.724 13.3608C115.879 13.582 115.923 13.8365 115.856 14.1242L115.624 16.2317Z" fill="white"/>
<path d="M122.739 12.7136C123.248 12.5476 123.69 12.5144 124.066 12.614C124.453 12.7136 124.773 12.9072 125.028 13.1948C125.282 13.4825 125.481 13.842 125.625 14.2735C125.779 14.6939 125.884 15.142 125.94 15.6177C125.962 15.839 125.973 16.0824 125.973 16.3479C125.984 16.6134 125.978 16.879 125.956 17.1445C125.945 17.41 125.923 17.6645 125.89 17.9079C125.868 18.1512 125.835 18.3725 125.791 18.5717C126.056 18.5606 126.294 18.5274 126.504 18.4721C126.714 18.4057 126.907 18.3338 127.084 18.2564C127.261 18.1678 127.427 18.0738 127.582 17.9742C127.747 17.8747 127.913 17.7806 128.079 17.6921C128.289 17.5815 128.461 17.5704 128.593 17.6589C128.737 17.7364 128.831 17.8581 128.875 18.024C128.93 18.19 128.942 18.3725 128.908 18.5717C128.886 18.7597 128.814 18.9091 128.693 19.0197C128.162 19.5065 127.582 19.8606 126.951 20.0818C126.321 20.292 125.68 20.3971 125.028 20.3971C124.596 21.1605 124.044 21.7413 123.369 22.1396C122.695 22.5268 121.96 22.726 121.163 22.737C120.423 22.7481 119.798 22.5988 119.289 22.289C118.781 21.9792 118.377 21.5754 118.079 21.0775C117.78 20.5797 117.581 20.0154 117.482 19.3848C117.393 18.7431 117.393 18.1015 117.482 17.4598C117.581 16.807 117.769 16.1764 118.046 15.5679C118.333 14.9484 118.698 14.4118 119.14 13.9582C119.582 13.5046 120.102 13.1616 120.699 12.9293C121.307 12.6859 121.987 12.614 122.739 12.7136ZM121.545 14.622C121.191 14.6995 120.865 14.8986 120.566 15.2194C120.268 15.5292 120.014 15.9054 119.804 16.3479C119.593 16.7794 119.444 17.2496 119.356 17.7585C119.267 18.2674 119.256 18.7487 119.323 19.2023C119.4 19.6448 119.571 20.032 119.837 20.3639C120.102 20.6958 120.483 20.9116 120.981 21.0112C121.158 21.0443 121.357 21.0277 121.578 20.9614C121.799 20.895 122.015 20.7954 122.225 20.6627C122.435 20.5299 122.623 20.375 122.789 20.198C122.966 20.0099 123.098 19.8218 123.187 19.6338C122.877 19.4457 122.612 19.2189 122.391 18.9534C122.181 18.6878 121.998 18.3946 121.843 18.0738C121.6 17.5428 121.456 16.9785 121.412 16.3811C121.368 15.7726 121.412 15.1862 121.545 14.622ZM123.601 14.705C123.292 14.8931 123.115 15.1586 123.071 15.5016C123.037 15.8335 123.071 16.1764 123.17 16.5305C123.27 16.8734 123.408 17.1832 123.585 17.4598C123.762 17.7364 123.911 17.9079 124.033 17.9742C124.099 17.9189 124.149 17.7917 124.182 17.5925C124.226 17.3823 124.254 17.1445 124.265 16.879C124.276 16.6134 124.27 16.3368 124.248 16.0492C124.226 15.7615 124.187 15.5071 124.132 15.2858C124.077 15.0645 124.005 14.8986 123.916 14.788C123.828 14.6663 123.723 14.6386 123.601 14.705Z" fill="white"/>
<path d="M128.029 8.84688C128.184 8.5703 128.378 8.39328 128.61 8.31584C128.853 8.23839 129.08 8.23286 129.29 8.29924C129.5 8.36562 129.671 8.48732 129.804 8.66434C129.937 8.84135 129.97 9.04602 129.903 9.27836L128.875 20.2976C129.351 20.2644 129.815 20.1703 130.268 20.0154C130.722 19.8495 131.158 19.6448 131.578 19.4014C131.999 19.147 132.397 18.8648 132.773 18.5551C133.16 18.2453 133.519 17.93 133.851 17.6091C134.027 17.5206 134.182 17.5538 134.315 17.7087C134.459 17.8636 134.558 18.0627 134.613 18.3061C134.68 18.5385 134.691 18.7819 134.647 19.0363C134.613 19.2908 134.508 19.4733 134.331 19.584C134.099 19.761 133.839 19.9601 133.552 20.1814C133.265 20.3916 132.972 20.5963 132.673 20.7954C132.386 20.9835 132.104 21.155 131.827 21.3099C131.551 21.4648 131.313 21.5699 131.114 21.6252C131.446 21.9903 131.706 22.4549 131.894 23.0192C132.082 23.5834 132.198 24.1808 132.242 24.8114C132.286 25.4531 132.253 26.0893 132.142 26.7199C132.043 27.3505 131.866 27.9037 131.612 28.3794C131.357 28.8662 131.026 29.2479 130.617 29.5245C130.207 29.8011 129.721 29.9006 129.157 29.8232C128.626 29.7568 128.195 29.5521 127.864 29.2092C127.543 28.8662 127.294 28.4458 127.117 27.9479C126.94 27.4611 126.824 26.9135 126.769 26.305C126.714 25.7076 126.692 25.1102 126.703 24.5127C126.714 23.9264 126.741 23.3621 126.786 22.82C126.819 22.289 126.841 21.8409 126.852 21.4758C126.852 21.2656 126.874 20.8673 126.918 20.281C126.962 19.6946 127.012 19.0031 127.068 18.2066C127.134 17.41 127.206 16.5526 127.283 15.6343C127.372 14.716 127.454 13.8254 127.532 12.9625C127.62 12.0995 127.703 11.303 127.781 10.5728C127.869 9.84259 127.952 9.26729 128.029 8.84688ZM129.24 27.6658C129.539 27.6548 129.787 27.5165 129.986 27.2509C130.185 26.9965 130.329 26.6812 130.418 26.305C130.517 25.9289 130.556 25.514 130.534 25.0604C130.512 24.6178 130.434 24.203 130.301 23.8157C130.169 23.4285 129.975 23.0911 129.721 22.8034C129.478 22.5268 129.168 22.3664 128.792 22.3222C128.77 22.5102 128.737 22.7758 128.693 23.1187C128.66 23.4617 128.626 23.8323 128.593 24.2306C128.571 24.6289 128.555 25.0327 128.544 25.4421C128.544 25.8514 128.56 26.222 128.593 26.5539C128.638 26.8858 128.709 27.1569 128.809 27.3671C128.908 27.5773 129.052 27.6769 129.24 27.6658Z" fill="white"/>
<path d="M134.033 8.84688C134.188 8.5703 134.381 8.39328 134.613 8.31584C134.857 8.23839 135.083 8.23286 135.293 8.29924C135.503 8.36562 135.675 8.48732 135.807 8.66434C135.94 8.84135 135.973 9.04602 135.907 9.27836L134.879 20.2976C135.354 20.2644 135.819 20.1703 136.272 20.0154C136.725 19.8495 137.162 19.6448 137.582 19.4014C138.002 19.147 138.4 18.8648 138.776 18.5551C139.163 18.2453 139.522 17.93 139.854 17.6091C140.031 17.5206 140.186 17.5538 140.318 17.7087C140.462 17.8636 140.562 18.0627 140.617 18.3061C140.683 18.5385 140.694 18.7819 140.65 19.0363C140.617 19.2908 140.512 19.4733 140.335 19.584C140.103 19.761 139.843 19.9601 139.556 20.1814C139.268 20.3916 138.975 20.5963 138.677 20.7954C138.389 20.9835 138.107 21.155 137.831 21.3099C137.554 21.4648 137.317 21.5699 137.118 21.6252C137.449 21.9903 137.709 22.4549 137.897 23.0192C138.085 23.5834 138.201 24.1808 138.245 24.8114C138.29 25.4531 138.256 26.0893 138.146 26.7199C138.046 27.3505 137.869 27.9037 137.615 28.3794C137.361 28.8662 137.029 29.2479 136.62 29.5245C136.211 29.8011 135.725 29.9006 135.161 29.8232C134.63 29.7568 134.199 29.5521 133.867 29.2092C133.546 28.8662 133.298 28.4458 133.121 27.9479C132.944 27.4611 132.828 26.9135 132.773 26.305C132.717 25.7076 132.695 25.1102 132.706 24.5127C132.717 23.9264 132.745 23.3621 132.789 22.82C132.822 22.289 132.844 21.8409 132.855 21.4758C132.855 21.2656 132.878 20.8673 132.922 20.281C132.966 19.6946 133.016 19.0031 133.071 18.2066C133.137 17.41 133.209 16.5526 133.287 15.6343C133.375 14.716 133.458 13.8254 133.535 12.9625C133.624 12.0995 133.707 11.303 133.784 10.5728C133.873 9.84259 133.956 9.26729 134.033 8.84688ZM135.244 27.6658C135.542 27.6548 135.791 27.5165 135.99 27.2509C136.189 26.9965 136.333 26.6812 136.421 26.305C136.521 25.9289 136.559 25.514 136.537 25.0604C136.515 24.6178 136.438 24.203 136.305 23.8157C136.172 23.4285 135.979 23.0911 135.725 22.8034C135.481 22.5268 135.172 22.3664 134.796 22.3222C134.774 22.5102 134.741 22.7758 134.696 23.1187C134.663 23.4617 134.63 23.8323 134.597 24.2306C134.575 24.6289 134.558 25.0327 134.547 25.4421C134.547 25.8514 134.564 26.222 134.597 26.5539C134.641 26.8858 134.713 27.1569 134.812 27.3671C134.912 27.5773 135.056 27.6769 135.244 27.6658Z" fill="white"/>
<path d="M144.863 14.7714C144.84 15.3245 144.741 15.8832 144.564 16.4475C144.387 17.0006 144.127 17.504 143.785 17.9576C143.442 18.4002 143.022 18.7597 142.524 19.0363C142.038 19.3018 141.479 19.4125 140.849 19.3682C140.86 19.7112 140.899 20.0431 140.965 20.3639C141.032 20.6848 141.137 20.9614 141.28 21.1937C141.435 21.415 141.64 21.5754 141.894 21.675C142.148 21.7635 142.469 21.7469 142.856 21.6252C143.243 21.5145 143.613 21.332 143.967 21.0775C144.321 20.8231 144.636 20.5299 144.912 20.198C145.2 19.8661 145.438 19.5176 145.625 19.1525C145.824 18.7763 145.968 18.4112 146.057 18.0572C146.101 17.8691 146.206 17.753 146.372 17.7087C146.538 17.6645 146.709 17.67 146.886 17.7253C147.074 17.7806 147.229 17.8802 147.35 18.024C147.483 18.1568 147.527 18.3117 147.483 18.4887C147.24 19.1304 146.996 19.7001 146.753 20.198C146.521 20.6958 146.261 21.1384 145.974 21.5256C145.686 21.9018 145.36 22.2226 144.995 22.4881C144.641 22.7536 144.221 22.9749 143.735 23.1519C143.083 23.3843 142.48 23.4838 141.927 23.4506C141.374 23.4285 140.893 23.2847 140.484 23.0192C140.075 22.7536 139.749 22.3775 139.506 21.8907C139.274 21.4039 139.141 20.812 139.108 20.115C139.086 19.7831 139.075 19.3848 139.075 18.9202C139.086 18.4444 139.119 17.9521 139.174 17.4432C139.229 16.9232 139.318 16.3977 139.439 15.8666C139.561 15.3356 139.727 14.8433 139.937 14.3897C140.147 13.925 140.407 13.5212 140.716 13.1782C141.037 12.8242 141.424 12.5697 141.877 12.4148C142.253 12.2821 142.624 12.2323 142.989 12.2655C143.353 12.2987 143.674 12.4148 143.95 12.614C144.238 12.8131 144.465 13.0952 144.63 13.4603C144.796 13.8144 144.874 14.2514 144.863 14.7714ZM142.773 14.3399C142.618 14.2403 142.463 14.2348 142.309 14.3233C142.165 14.4007 142.027 14.539 141.894 14.7382C141.761 14.9263 141.645 15.1531 141.546 15.4186C141.446 15.6841 141.363 15.9607 141.297 16.2483C141.231 16.5249 141.181 16.7904 141.148 17.0449C141.115 17.2994 141.109 17.504 141.131 17.6589C141.64 17.5594 142.043 17.3491 142.342 17.0283C142.64 16.7075 142.845 16.3645 142.955 15.9994C143.077 15.6343 143.116 15.2913 143.071 14.9705C143.038 14.6497 142.939 14.4395 142.773 14.3399Z" fill="white"/>
<path d="M151.546 14.7714C151.524 15.3245 151.424 15.8832 151.248 16.4475C151.071 17.0006 150.811 17.504 150.468 17.9576C150.125 18.4002 149.705 18.7597 149.208 19.0363C148.721 19.3018 148.163 19.4125 147.533 19.3682C147.544 19.7112 147.582 20.0431 147.649 20.3639C147.715 20.6848 147.82 20.9614 147.964 21.1937C148.119 21.415 148.323 21.5754 148.577 21.675C148.832 21.7635 149.152 21.7469 149.539 21.6252C149.926 21.5145 150.297 21.332 150.651 21.0775C151.004 20.8231 151.319 20.5299 151.596 20.198C151.883 19.8661 152.121 19.5176 152.309 19.1525C152.508 18.7763 152.652 18.4112 152.74 18.0572C152.784 17.8691 152.889 17.753 153.055 17.7087C153.221 17.6645 153.393 17.67 153.569 17.7253C153.757 17.7806 153.912 17.8802 154.034 18.024C154.166 18.1568 154.211 18.3117 154.166 18.4887C153.923 19.1304 153.68 19.7001 153.437 20.198C153.205 20.6958 152.945 21.1384 152.657 21.5256C152.37 21.9018 152.044 22.2226 151.679 22.4881C151.325 22.7536 150.905 22.9749 150.418 23.1519C149.766 23.3843 149.163 23.4838 148.611 23.4506C148.058 23.4285 147.577 23.2847 147.168 23.0192C146.759 22.7536 146.433 22.3775 146.189 21.8907C145.957 21.4039 145.824 20.812 145.791 20.115C145.769 19.7831 145.758 19.3848 145.758 18.9202C145.769 18.4444 145.802 17.9521 145.858 17.4432C145.913 16.9232 146.001 16.3977 146.123 15.8666C146.245 15.3356 146.41 14.8433 146.621 14.3897C146.831 13.925 147.09 13.5212 147.4 13.1782C147.721 12.8242 148.108 12.5697 148.561 12.4148C148.937 12.2821 149.307 12.2323 149.672 12.2655C150.037 12.2987 150.358 12.4148 150.634 12.614C150.921 12.8131 151.148 13.0952 151.314 13.4603C151.48 13.8144 151.557 14.2514 151.546 14.7714ZM149.456 14.3399C149.302 14.2403 149.147 14.2348 148.992 14.3233C148.848 14.4007 148.71 14.539 148.577 14.7382C148.445 14.9263 148.329 15.1531 148.229 15.4186C148.13 15.6841 148.047 15.9607 147.98 16.2483C147.914 16.5249 147.864 16.7904 147.831 17.0449C147.798 17.2994 147.793 17.504 147.815 17.6589C148.323 17.5594 148.727 17.3491 149.025 17.0283C149.324 16.7075 149.528 16.3645 149.639 15.9994C149.761 15.6343 149.799 15.2913 149.755 14.9705C149.722 14.6497 149.622 14.4395 149.456 14.3399Z" fill="white"/>
</svg>
