<svg width="23" height="34" viewBox="0 0 23 34" fill="none" xmlns="http://www.w3.org/2000/svg">
<path d="M11.1945 31.5325C11.1645 31.5458 11.1381 31.5665 11.1179 31.5928L11.1417 31.5774C11.1578 31.5622 11.1806 31.5444 11.1945 31.5325Z" fill="white"/>
<path d="M12.3036 15.7064C11.1076 16.2292 9.7504 16.822 7.99138 16.822C7.25554 16.8205 6.52324 16.7174 5.81445 16.5155L7.03103 29.2703C7.07409 29.8033 7.31193 30.3004 7.69729 30.6627C8.08265 31.0251 8.58737 31.226 9.1112 31.226C9.1112 31.226 10.8362 31.3175 11.4118 31.3175C12.0312 31.3175 13.8888 31.226 13.8888 31.226C14.4126 31.226 14.9172 31.0248 15.3024 30.6625C15.6877 30.3001 15.9255 29.8033 15.9685 29.2703L17.2716 15.1758C16.6893 14.9727 16.1016 14.8378 15.4391 14.8378C14.2933 14.8373 13.3701 15.2403 12.3036 15.7064Z" fill="#FFDD00"/>
<path d="M22.8974 9.08745L22.7142 8.14382C22.5498 7.29717 22.1767 6.49718 21.3256 6.19118C21.0528 6.09327 20.7433 6.05122 20.5341 5.84857C20.325 5.64596 20.2631 5.33126 20.2148 5.03943C20.1252 4.50381 20.041 3.96773 19.9491 3.43304C19.8699 2.97333 19.8072 2.45693 19.6007 2.03521C19.3319 1.46895 18.7742 1.13779 18.2197 0.918689C17.9355 0.810373 17.6456 0.718744 17.3512 0.64425C15.9657 0.271008 14.5091 0.133787 13.0837 0.0555714C11.373 -0.0408257 9.65765 -0.0117826 7.95093 0.142478C6.68061 0.260487 5.34264 0.403198 4.13549 0.85191C3.69429 1.01612 3.23963 1.21326 2.90414 1.56134C2.49249 1.98901 2.35811 2.65042 2.65866 3.18374C2.87233 3.56247 3.23426 3.83006 3.61814 4.00707C4.11815 4.23516 4.64034 4.40872 5.17603 4.52486C6.66762 4.86151 8.21253 4.99368 9.73637 5.04996C11.4254 5.11955 13.117 5.06315 14.798 4.88116C15.2137 4.8345 15.6286 4.77855 16.0428 4.71331C16.5306 4.63691 16.8437 3.98557 16.6999 3.53182C16.5279 2.98936 16.0656 2.77896 15.5429 2.86083C15.4658 2.87317 15.3892 2.8846 15.3122 2.89603L15.2567 2.90427C15.0796 2.92716 14.9025 2.94848 14.7254 2.96831C14.3596 3.00856 13.9929 3.04149 13.6253 3.06712C12.802 3.12565 11.9765 3.15264 11.1514 3.15402C10.3406 3.15402 9.52944 3.13068 8.72048 3.07626C8.35139 3.05157 7.98318 3.02015 7.61589 2.98203C7.44881 2.96419 7.28218 2.94545 7.11557 2.92439L6.95698 2.90382L6.92251 2.89879L6.75811 2.87455C6.42216 2.82285 6.08621 2.7634 5.75385 2.69158C5.72032 2.68397 5.69031 2.66494 5.66881 2.63757C5.6473 2.61021 5.63559 2.57618 5.63559 2.5411C5.63559 2.50602 5.6473 2.47198 5.66881 2.44462C5.69031 2.41726 5.72032 2.39821 5.75385 2.39061H5.76013C6.04815 2.32795 6.33839 2.27443 6.62954 2.22777C6.72661 2.21222 6.82395 2.19698 6.9216 2.18204H6.92428C7.10659 2.16968 7.2898 2.13629 7.4712 2.11434C9.04955 1.94669 10.6373 1.88954 12.2233 1.94327C12.9933 1.96614 13.7628 2.01234 14.5292 2.09193C14.694 2.10931 14.858 2.12761 15.0219 2.14819C15.0846 2.15597 15.1478 2.16511 15.211 2.17289L15.3382 2.19164C15.7091 2.24805 16.078 2.31651 16.445 2.39702C16.9888 2.51777 17.6871 2.55711 17.929 3.16545C18.006 3.35847 18.041 3.573 18.0835 3.77561L18.1377 4.03406C18.1391 4.03868 18.1402 4.04344 18.1409 4.04822C18.269 4.6581 18.3972 5.26797 18.5256 5.87784C18.5351 5.9229 18.5353 5.96945 18.5263 6.01459C18.5173 6.05975 18.4993 6.1025 18.4734 6.14024C18.4475 6.17797 18.4143 6.20984 18.3758 6.23387C18.3373 6.2579 18.2944 6.27356 18.2497 6.27991H18.2461L18.1677 6.29089L18.0903 6.30139C17.8448 6.33404 17.599 6.36453 17.353 6.39289C16.8683 6.4493 16.3829 6.49808 15.8968 6.53926C14.9307 6.62127 13.9627 6.6751 12.9928 6.70072C12.4986 6.71412 12.0045 6.7204 11.5106 6.71947C9.54467 6.7179 7.58041 6.6012 5.62754 6.37C5.41611 6.3444 5.2047 6.31694 4.99326 6.28906C5.15721 6.31056 4.87411 6.27258 4.81679 6.26436C4.68241 6.24514 4.54802 6.22518 4.41364 6.20444C3.96258 6.13535 3.51422 6.05029 3.06404 5.97572C2.51981 5.88425 1.99932 5.93 1.50704 6.20444C1.10296 6.43024 0.775914 6.77649 0.569531 7.19701C0.357211 7.64525 0.294054 8.13329 0.199094 8.61496C0.104133 9.09659 -0.043684 9.61483 0.0123069 10.1093C0.1328 11.1764 0.863371 12.0436 1.91421 12.2376C2.90279 12.4205 3.89674 12.5687 4.89337 12.695C8.80842 13.1846 12.7636 13.2432 16.6909 12.8697C17.0107 12.8392 17.3301 12.806 17.649 12.77C17.7487 12.7588 17.8495 12.7705 17.9441 12.8043C18.0387 12.838 18.1247 12.893 18.1958 12.9651C18.2669 13.0372 18.3213 13.1246 18.3551 13.221C18.3888 13.3173 18.401 13.4202 18.3908 13.522L18.2914 14.509C18.091 16.5036 17.8906 18.498 17.6902 20.4923C17.4812 22.5866 17.2708 24.6808 17.0591 26.7746C16.9994 27.3645 16.9397 27.9541 16.88 28.5435C16.8226 29.124 16.8146 29.7227 16.7066 30.2964C16.5364 31.1983 15.9384 31.7523 15.0658 31.9549C14.2664 32.1407 13.4498 32.2383 12.63 32.2457C11.7212 32.2508 10.8128 32.2096 9.90392 32.2146C8.93368 32.2202 7.74535 32.1287 6.99642 31.3913C6.33839 30.7438 6.24746 29.7296 6.15788 28.8526C6.03844 27.6917 5.92005 26.5311 5.80267 25.3705L5.14422 18.917L4.71825 14.7414C4.71107 14.6723 4.70391 14.6042 4.69719 14.5346C4.64612 14.0365 4.30077 13.549 3.75653 13.5741C3.2907 13.5951 2.76125 13.9995 2.81589 14.5346L3.13167 17.6304L3.78475 24.034C3.9708 25.8529 4.15639 27.6721 4.34153 29.4917C4.37738 29.8402 4.41096 30.1898 4.44858 30.5383C4.6533 32.443 6.0777 33.4693 7.84164 33.7583C8.87188 33.9276 9.92719 33.9624 10.9727 33.9797C12.3129 34.0018 13.6665 34.0544 14.9848 33.8064C16.9382 33.4404 18.4038 32.1085 18.613 30.0425C18.6727 29.446 18.7324 28.8494 18.7922 28.2526C18.9907 26.2791 19.189 24.3054 19.387 22.3315L20.0347 15.8822L20.3317 12.9264C20.3465 12.7799 20.4071 12.642 20.5045 12.5334C20.602 12.4248 20.7311 12.351 20.8728 12.3231C21.4313 12.212 21.9653 12.0221 22.3626 11.588C22.9951 10.8969 23.1209 9.99585 22.8974 9.08745ZM1.88554 9.72507C1.89405 9.72095 1.87838 9.79549 1.87166 9.83026C1.87031 9.77765 1.873 9.731 1.88554 9.72507ZM1.93974 10.1532C1.94422 10.15 1.95766 10.1683 1.97154 10.1903C1.95049 10.1701 1.93706 10.155 1.9393 10.1532H1.93974ZM1.99305 10.225C2.01231 10.2584 2.02261 10.2794 1.99305 10.225V10.225ZM2.1001 10.3137H2.10279C2.10279 10.3169 2.10772 10.3201 2.10951 10.3234C2.10654 10.3198 2.10324 10.3166 2.09965 10.3137H2.1001ZM20.8468 10.1811C20.6461 10.3759 20.3438 10.4665 20.045 10.5118C16.6945 11.0195 13.2952 11.2766 9.90793 11.1631C7.48375 11.0785 5.0851 10.8036 2.68511 10.4574C2.44993 10.4235 2.19506 10.3796 2.03336 10.2026C1.72877 9.86867 1.87838 9.1963 1.95766 8.79288C2.03023 8.42329 2.16908 7.93068 2.59954 7.87807C3.27144 7.79757 4.05171 8.08709 4.71646 8.19002C5.51675 8.31472 6.32004 8.4146 7.12629 8.48962C10.5673 8.80981 14.0661 8.75994 17.4918 8.29157C18.1162 8.20587 18.7384 8.10631 19.3583 7.99288C19.9106 7.89179 20.523 7.70198 20.8567 8.28607C21.0855 8.68402 21.116 9.21643 21.0806 9.66606C21.0697 9.86195 20.9859 10.0462 20.8464 10.1811H20.8468Z" fill="white"/>
</svg>
